<svg xmlns="http://www.w3.org/2000/svg" width="30" height="30" viewBox="0 0 30 30"><defs><style>.a{fill:#fff;}.b{fill:#ff5252;}</style></defs><g transform="translate(-322 -288)"><rect class="a" width="30" height="30" transform="translate(322 288)"/><g transform="translate(329 295)"><path class="b" d="M15.9,14.96,1.04.1A.333.333,0,0,0,.569.1L.1.569a.333.333,0,0,0,0,.471L2.854,3.8A8.567,8.567,0,0,0,.016,7.9a.335.335,0,0,0,0,.2A8.4,8.4,0,0,0,8,14a8.238,8.238,0,0,0,4.017-1.04L14.96,15.9a.333.333,0,0,0,.471,0l.471-.471A.333.333,0,0,0,15.9,14.96ZM5.333,8A2.67,2.67,0,0,0,8,10.667a2.612,2.612,0,0,0,1.342-.382l1.449,1.449A4.66,4.66,0,0,1,4.266,5.209L5.716,6.658A2.612,2.612,0,0,0,5.333,8Z" transform="translate(0 0)"/><path class="b" d="M246.193,170.953a.334.334,0,0,0,.072.365l2.3,2.3a.333.333,0,0,0,.569-.24,2.648,2.648,0,0,0-2.634-2.634A.364.364,0,0,0,246.193,170.953Z" transform="translate(-238.474 -165.413)"/><path class="b" d="M156.4,65.727a.334.334,0,0,0,.38.065,4.617,4.617,0,0,1,2.008-.459A4.672,4.672,0,0,1,163.454,70,4.617,4.617,0,0,1,163,72.007a.333.333,0,0,0,.065.38l1.155,1.155a.333.333,0,0,0,.236.1h0a.335.335,0,0,0,.236-.1,8.687,8.687,0,0,0,2.084-3.439.335.335,0,0,0,0-.2,8.4,8.4,0,0,0-7.984-5.9,8.3,8.3,0,0,0-2.919.529.333.333,0,0,0-.119.548Z" transform="translate(-150.788 -61.999)"/></g></g></svg>