<svg xmlns="http://www.w3.org/2000/svg" width="22" height="22" viewBox="0 0 22 22">
    <g fill="#7D7F87" fill-rule="evenodd">
        <path d="M11 0c6.075 0 11 4.925 11 11s-4.925 11-11 11S0 17.075 0 11 4.925 0 11 0zm0 .7C5.311.7.7 5.311.7 11c0 5.689 4.611 10.3 10.3 10.3 5.689 0 10.3-4.611 10.3-10.3C21.3 5.311 16.689.7 11 .7z"/>
        <path d="M8.852 15.143a.36.36 0 0 0 .001.503.346.346 0 0 0 .495 0l4.3-4.389a.36.36 0 0 0 0-.501l-4.3-4.4a.346.346 0 0 0-.494-.003.36.36 0 0 0-.002.503l4.054 4.15-4.054 4.137z"/>
    </g>
</svg>
